<svg id="Logo" xmlns="http://www.w3.org/2000/svg" viewBox="0 0 134.35 28"><defs><style>.cls-1{isolation:isolate;}.cls-2{fill:#fefefe;}.cls-3,.cls-4{fill:#65e496;}.cls-4,.cls-5{fill-rule:evenodd;}.cls-5{fill:#44444f;}</style></defs><title>logo_ai</title><g id="BUKEE" class="cls-1"><g class="cls-1"><path class="cls-2" d="M49.89,3.09a9.51,9.51,0,0,1,5.48,1.37,4.66,4.66,0,0,1,2,4.09A4.32,4.32,0,0,1,56.61,11a4.43,4.43,0,0,1-2.13,1.63,4.24,4.24,0,0,1,2.69,1.64,4.88,4.88,0,0,1,.9,2.91,5.15,5.15,0,0,1-1.89,4.33A8.54,8.54,0,0,1,50.83,23H41V20.61l2.12-.41V5.91L41,5.5V3.09h8.85Zm-2.73,8.34H50a4.07,4.07,0,0,0,2.46-.65,2.28,2.28,0,0,0,.86-1.92,2.36,2.36,0,0,0-.87-2,4.24,4.24,0,0,0-2.59-.66H47.16Zm0,2.77v5.74h3.67a3.69,3.69,0,0,0,2.42-.69,2.49,2.49,0,0,0,.84-2.05A3.19,3.19,0,0,0,53.38,15a2.92,2.92,0,0,0-2.25-.77Z"/><path class="cls-2" d="M67.57,3.09V5.5l-2.14.41V16.3a3.85,3.85,0,0,0,1.06,2.95,4.14,4.14,0,0,0,2.91,1,4.19,4.19,0,0,0,2.94-1,3.79,3.79,0,0,0,1.07-2.95V5.91L71.29,5.5V3.09h8.24V5.5l-2.13.41V16.3a6.33,6.33,0,0,1-2.21,5.17,8.82,8.82,0,0,1-5.79,1.82,8.74,8.74,0,0,1-5.76-1.82,6.32,6.32,0,0,1-2.2-5.17V5.91L59.32,5.5V3.09h8.25Z"/><path class="cls-2" d="M80.71,20.61l2.12-.41V5.91L80.71,5.5V3.09h8.13V5.5l-2,.41v5.32h1.73l3.83-5.57L91.21,5.5V3.09h7.88V5.5l-2.16.37L92,12.4l5.5,7.87,2,.34V23H91.64V20.61l1.23-.17-3.82-5.75H86.82V20.2l2,.41V23H80.71Z"/></g><g class="cls-1"><path class="cls-3" d="M113.57,14.25h-6.74v5.69h6.43l.18-2.38h3V23H100.72V20.61l2.12-.41V5.91l-2.12-.41V3.09h15.72V8.55h-3.06l-.18-2.38h-6.37v5h6.74Z"/><path class="cls-3" d="M131.46,14.25h-6.74v5.69h6.42l.18-2.38h3V23H118.6V20.61l2.12-.41V5.91L118.6,5.5V3.09h15.73V8.55h-3.07l-.17-2.38h-6.37v5h6.74Z"/></g></g><g id="logo_icon" data-name="logo icon"><path id="Rectangle_10_copy_3" data-name="Rectangle 10 copy 3" class="cls-4" d="M28,28,0,0H28Z"/><path class="cls-5" d="M28,0,0,28V0Z"/></g></svg>