<svg id="Logo" xmlns="http://www.w3.org/2000/svg" viewBox="0 0 134.35 28"><defs><style>.cls-1{isolation:isolate}.cls-2{fill:#fefefe}.cls-3{fill:#65e496}</style></defs><g id="BUKEE" class="cls-1"><g class="cls-1"><path class="cls-2" d="M49.89 3.09a9.51 9.51 0 015.48 1.37 4.66 4.66 0 012 4.09 4.32 4.32 0 01-.76 2.45 4.43 4.43 0 01-2.13 1.63 4.24 4.24 0 012.69 1.64 4.88 4.88 0 01.9 2.91 5.15 5.15 0 01-1.89 4.33A8.54 8.54 0 0150.83 23H41v-2.39l2.12-.41V5.91L41 5.5V3.09h8.85zm-2.73 8.34H50a4.07 4.07 0 002.46-.65 2.28 2.28 0 00.86-1.92 2.36 2.36 0 00-.87-2 4.24 4.24 0 00-2.59-.66h-2.7zm0 2.77v5.74h3.67a3.69 3.69 0 002.42-.69 2.49 2.49 0 00.84-2.05 3.19 3.19 0 00-.71-2.2 2.92 2.92 0 00-2.25-.77zM67.57 3.09V5.5l-2.14.41V16.3a3.85 3.85 0 001.06 2.95 4.14 4.14 0 002.91 1 4.19 4.19 0 002.94-1 3.79 3.79 0 001.07-2.95V5.91l-2.12-.41V3.09h8.24V5.5l-2.13.41V16.3a6.33 6.33 0 01-2.21 5.17 8.82 8.82 0 01-5.79 1.82 8.74 8.74 0 01-5.76-1.82 6.32 6.32 0 01-2.2-5.17V5.91l-2.12-.41V3.09h8.25zM80.71 20.61l2.12-.41V5.91l-2.12-.41V3.09h8.13V5.5l-2 .41v5.32h1.73l3.83-5.57-1.19-.16V3.09h7.88V5.5l-2.16.37L92 12.4l5.5 7.87 2 .34V23h-7.86v-2.39l1.23-.17-3.82-5.75h-2.23v5.51l2 .41V23h-8.11z"/></g><g class="cls-1"><path class="cls-3" d="M113.57 14.25h-6.74v5.69h6.43l.18-2.38h3V23h-15.72v-2.39l2.12-.41V5.91l-2.12-.41V3.09h15.72v5.46h-3.06l-.18-2.38h-6.37v5h6.74zM131.46 14.25h-6.74v5.69h6.42l.18-2.38h3V23H118.6v-2.39l2.12-.41V5.91l-2.12-.41V3.09h15.73v5.46h-3.07l-.17-2.38h-6.37v5h6.74z"/></g></g><g id="logo_icon" data-name="logo icon" fill-rule="evenodd"><path id="Rectangle_10_copy_3" data-name="Rectangle 10 copy 3" d="M28 28L0 0h28z" fill="#65e496"/><path d="M28 0L0 28V0z" fill="#80809b"/></g></svg>